<?xml version="1.0" standalone="no"?>
<!DOCTYPE svg PUBLIC "-//W3C//DTD SVG 20010904//EN"
 "http://www.w3.org/TR/2001/REC-SVG-20010904/DTD/svg10.dtd">
<svg version="1.0" xmlns="http://www.w3.org/2000/svg"
 width="500.000000pt" height="500.000000pt" viewBox="0 0 500.000000 500.000000"
 preserveAspectRatio="xMidYMid meet">

<g transform="translate(0.000000,500.000000) scale(0.100000,-0.100000)"
fill="#000000" stroke="none">
<path d="M628 2875 c-60 -19 -151 -102 -186 -169 -22 -44 -26 -64 -27 -141 0
-82 3 -96 33 -157 35 -72 78 -114 152 -151 36 -17 62 -22 125 -21 149 1 222
54 309 224 l46 88 60 -30 c164 -85 308 -8 298 158 -7 108 -82 183 -184 184
-50 0 -128 -38 -173 -84 l-34 -35 -45 40 c-73 64 -163 102 -252 106 -47 2 -92
-3 -122 -12z m-68 -68 c0 -2 -15 -16 -32 -33 l-33 -29 29 33 c28 30 36 37 36
29z m269 -73 c34 -14 150 -95 151 -105 0 -3 -21 -41 -47 -84 -52 -86 -103
-130 -169 -145 -115 -27 -231 90 -209 209 23 123 143 179 274 125z m468 -6
c32 -30 32 -92 1 -112 -32 -20 -68 -22 -108 -4 -56 24 -64 40 -38 73 26 33 76
65 102 65 11 0 30 -10 43 -22z m34 -121 l-24 -22 19 27 c10 14 21 24 23 22 3
-3 -6 -15 -18 -27z m-44 -23 c-3 -3 -12 -4 -19 -1 -8 3 -5 6 6 6 11 1 17 -2
13 -5z m-347 -107 c0 -2 -10 -12 -22 -23 l-23 -19 19 23 c18 21 26 27 26 19z"/>
<path d="M665 2721 c-11 -5 -29 -19 -40 -31 l-20 -22 35 21 c26 15 52 21 100
21 46 0 61 3 50 10 -18 12 -97 12 -125 1z"/>
<path d="M919 2575 c-17 -31 -46 -72 -64 -91 -18 -19 -29 -34 -26 -34 23 0
141 164 128 177 -3 3 -20 -21 -38 -52z"/>
<path d="M1095 2823 c-42 -22 -66 -44 -59 -55 3 -5 16 1 27 14 12 13 33 31 47
40 32 21 24 22 -15 1z"/>
<path d="M1610 2545 l0 -115 40 0 40 0 0 45 c0 45 0 45 35 45 35 0 35 0 35
-45 l0 -45 40 0 40 0 0 115 0 115 -40 0 -40 0 0 -45 c0 -45 0 -45 -35 -45 -35
0 -35 0 -35 45 l0 45 -40 0 -40 0 0 -115z"/>
<path d="M2012 2613 c-6 -27 -20 -78 -31 -115 l-20 -68 40 0 c32 0 39 3 39 20
0 16 7 20 35 20 28 0 35 -4 35 -20 0 -17 7 -20 40 -20 22 0 40 3 40 6 0 3 -14
54 -32 115 l-31 109 -52 0 -52 0 -11 -47z m76 -51 c7 -27 6 -44 0 -48 -19 -12
-30 14 -23 56 8 49 11 48 23 -8z"/>
<path d="M2320 2545 l0 -115 30 0 c28 0 29 1 32 55 l3 55 42 -55 c38 -48 47
-55 78 -55 l35 0 0 115 0 115 -30 0 c-29 0 -29 -1 -32 -62 l-3 -63 -44 63
c-40 55 -49 62 -78 62 l-33 0 0 -115z"/>
<path d="M2680 2545 l0 -115 65 0 c105 0 155 38 155 115 0 77 -50 115 -155
115 l-65 0 0 -115z m134 39 c9 -8 16 -23 16 -32 0 -29 -30 -62 -56 -62 -23 0
-24 3 -24 55 0 52 2 55 24 55 14 0 32 -7 40 -16z"/>
<path d="M3081 2646 c-33 -18 -50 -53 -51 -104 0 -37 6 -50 34 -78 29 -29 41
-34 79 -34 71 0 77 5 77 64 l0 53 -30 -5 c-25 -4 -30 -9 -30 -33 0 -23 -3 -27
-17 -22 -72 25 -44 136 29 118 19 -5 27 -1 36 19 9 20 8 25 -4 30 -27 10 -98
6 -123 -8z"/>
<path d="M3401 2646 c-70 -39 -67 -172 4 -204 14 -7 46 -12 71 -12 39 0 51 5
80 34 29 29 34 41 34 81 0 40 -5 52 -34 81 -29 29 -40 34 -82 34 -27 -1 -60
-7 -73 -14z m99 -56 c38 -38 19 -100 -30 -100 -31 0 -50 22 -50 59 0 22 32 61
50 61 6 0 19 -9 30 -20z"/>
<path d="M1350 2478 c-28 -15 -49 -18 -100 -15 -61 4 -63 3 -35 -9 55 -24 131
-10 164 29 16 20 16 20 -29 -5z"/>
</g>
</svg>
